<svg version="1" xmlns="http://www.w3.org/2000/svg" width="346.667" height="346.667" viewBox="0 0 260.000000 260.000000"><path d="M170.7 31.1c.7.7 1.5 1 1.8.7.3-.3-.2-.9-1.2-1.2-1.4-.6-1.5-.5-.6.5zM89.5 34c-.3.6.1.7.9.4 1.8-.7 2.1-1.4.7-1.4-.6 0-1.3.4-1.6 1zM170.5 38.2c0 5.3.3 5.5 6.8 3.5l3.8-1.2-5.3-3.6-5.3-3.6v4.9zM88.2 39.3l-3.3 3.3 3.4 1.1 3.4 1v-4.3c0-2.4-.1-4.4-.2-4.4 0 0-1.6 1.5-3.3 3.3zM180.5 44.5c-2.5 1.2-2.6 1.4-.5.9 2.8-.7 6-2.3 4.5-2.3-.5 0-2.3.6-4 1.4zM181 49.1l-7.5 2.9 5-.6c2.8-.3 6-.7 7.3-1 3.3-.7 2.7.3-1.5 2.5-2.8 1.5-3.3 2-1.8 2.1 1.8.1 1.9.2.3 1.3-1.5 1.2-.9 1.7 5 4.6 8.5 4.2 28.9 11.4 30.5 10.8.7-.3.4-.6-.7-.6-1.1-.1-1.6-.6-1.3-1.5.3-.7-.2-2.4-1-3.7-1.3-2 2 .7 7.7 6.1 2.2 2.2 4 2.9 5.4 2.4.9-.3 1.3-1.1.9-1.7-.3-.6-.1-.7.5-.3.7.4 1.7.4 2.2.1 1.4-.8-4.9-5.8-12-9.6-3-1.7-8.4-4.8-12-7-5.6-3.5-18.4-10-19.2-9.8-.2 0-3.7 1.3-7.8 3zm27 10.1c1.4 1.3 2 1.9 1.2 1.4-.9-.7-1.6-.5-2.2.3-.6 1-.9.9-1.4-.7-.4-1.1-1.3-2.3-2.1-2.6-.8-.3-1.5-1-1.5-1.6 0-1.3 2.5 0 6 3.2zm-7.4.7c-.8 1.3.4 4.2 1.5 3.5.5-.3.9 0 .9.5 0 1.4-2.3 1.4-3.8-.1-1-1 0-4.8 1.4-4.8.3 0 .3.4 0 .9zM209 67c0 .5-.2 1-.4 1-.3 0-.8-.5-1.1-1-.3-.6-.1-1 .4-1 .6 0 1.1.4 1.1 1zm5.6 2.7c-.6.6-3.6-.9-3.6-1.8 0-.5.9-.4 2 .3 1 .7 1.8 1.4 1.6 1.5zM77.6 48.9c-.3.5.5 1.1 1.9 1.3 3 .6 3.2.2.6-1.2-1.1-.6-2.2-.6-2.5-.1zM65.3 57.6c-4.3 2.9-10.5 7.5-13.8 10.1-3.3 2.7-8 6.3-10.5 8-5.5 3.7-16 14.6-16 16.5.1.9.5.8 1.4-.4 1.1-1.5 1.5-1.6 4.2-.2 2.7 1.5 2.9 1.4 5.4-1.4 1.4-1.7 4.3-3.6 6.5-4.2 10.3-3.2 40.4-19.9 37.6-20.8-1.8-.6-1.2-2.2 1.2-3.2 2-.8 2.1-.9.2-.9-2.4-.1-6.5-2.8-6.5-4.3 0-.7 1.5-.8 4.2-.4 5.1.8 4.4-.2-1.7-2.5l-4.4-1.7-7.8 5.4zM60 65.8c0 .4-.9 1.5-2 2.5-1.1.9-2 1.4-2 1 0-.3-1 .2-2.2 1.3-1.3 1-.7.2 1.1-1.9 3.4-3.6 5.1-4.6 5.1-2.9zm-8 14.1c0 .5-.7 1.2-1.6 1.5-1.4.5-1.5.4-.4-.9 1.4-1.7 2-1.9 2-.6zM43 84c0 .5-.5 1-1.1 1-.5 0-.7-.5-.4-1 .3-.6.8-1 1.1-1 .2 0 .4.4.4 1zm-9 6.4c0 .3-.4.8-1 1.1-.5.3-1 .1-1-.4 0-.6.5-1.1 1-1.1.6 0 1 .2 1 .4zM121 70c0 .5.4 1 .9 1 .6 0 1.3-.5 1.6-1 .3-.6-.1-1-.9-1-.9 0-1.6.4-1.6 1zM232.5 74c-.3.5.3 1 1.5 1s1.8-.5 1.5-1c-.3-.6-1-1-1.5-1s-1.2.4-1.5 1zM164.5 76.6c-1 .8-2 2.1-2.1 3-.4 2.4-3.1 4.9-5.4 5.1-2.6.2-7.3 5.5-5.7 6.5.7.4 1.8 0 2.6-1 1.3-1.6 1.3-1.6.7.1-.3 1.1.3 3 1.6 4.7 2.9 3.9 3 10.9.2 14.7-2.6 3.5-7.6 6-13.6 6.6l-4.7.4-.3-8.1c-.2-4.4 0-10.2.3-12.8.3-3.2.1-5.2-.9-6.5-1.3-1.7-1.4-1.6-.9 1 .2 1.5 0 3-.4 3.3-.5.3-.9 4.6-.9 9.5 0 8.7-.1 9.2-2.9 12-1.6 1.6-3.8 2.9-4.8 3-4 .3-6.9-.4-8.5-1.8-1.7-1.5-1.8-1.4-1.8.4 0 2.2-1.1 2.6-12.1 3.8-5.6.7-5.7.6-7.5-2.4-2.5-4.2-4.4-4-4.4.4 0 2.8-.4 3.5-1.9 3.5-1.1 0-2.6.3-3.5.6-1.3.5-1.6-1-1.8-10.7l-.3-11.3-3.7 9.7c-4.4 11.2-4.4 11.4-2 14 1.6 2 1.6 2-.3 1.3-1.1-.5-3.1-.9-4.5-1-1.8-.1-3-1.1-4.3-3.9-.9-2-2.2-3.7-2.8-3.7-.5 0-.8-.4-.5-.9.3-.5-.3-3-1.5-5.5-1.7-4-2.3-4.5-3.9-3.6-1 .5-3.2 1-4.9 1-2.1 0-3.1.5-3.1 1.5 0 .8.7 1.5 1.6 1.5.8 0 1.2-.5.9-1-.8-1.3.6-1.3 3.9 0 2.3.8 2.4 1.2 1.5 4.2-1.6 5.9-.7 7.5 2.5 4.2 2-2 3.6-1 3.6 2.2 0 1.7.9 3 3 4.2 4.3 2.4 4.1 4.4-.2 2.1-1.6-.9-2.3-.8-2.9.2-2.2 3.4-1.1 4.1 5.2 3.4l6.1-.7-.4 2.8c-.2 2-.9 3-2.3 3.2-5.1.7-6.1 1.2-6.2 3.2-.2 1.7.4 2 3.8 2s3.9.3 3.9 2.4c0 2.4-1.6 3.6-5 3.6-1.4 0-2 .9-2.2 3.7-.3 3.3-.7 3.8-3.5 4.4-1.8.3-3.5.4-3.8.1-1.1-1.1-.5-23.1.6-23.8 1.8-1.1-3.2-3.4-5.8-2.7-1.4.3-2.3.1-2.3-.7 0-.7.7-1 1.6-.6.8.3 1.2.2.9-.4-.4-.6-2.8-.7-6.1-.4l-5.4.7-.1-5.4c-.1-5.2-.2-5.3-.9-1.6-1 5.3-2.9 6.8-10.2 8.3-3.7.7-5.1 1.2-3.4 1.3 2.7.1 2.8.2 1.4 1.8-3.4 4-3 4.6.8 1.6 2.3-1.8 5.3-3.7 6.8-4.3 3.7-1.4 12.3-1.3 13.2.2.5.7.2.8-.7.3-.8-.4-.2.5 1.3 2.1s3.4 4.7 4.4 6.9c2.1 5.1 3.2 19.5 1.5 19.5-.8 0-1 .8-.6 2.1.5 1.6.3 2-.6 1.6-.8-.2-1.3-1.1-1.1-1.8.2-.8.6-4.4.9-8 .7-8-1.5-14.7-5.9-18.4-4.2-3.6-11.6-3.5-15.5.1l-2.8 2.5 2.8-1.7c1.5-.9 2.7-1.3 2.7-.8 0 .4.5.3 1.2-.4 2-2 6.3-1.4 8.9 1.4 1.7 1.8 1.9 2.3.6 1.8-1.3-.5-1.6-.2-1.1 1 .4 1 .1 1.6-.8 1.6-1.5 0-1.8 6.5-.4 8.8.5.8-.1 2-1.8 3.3l-2.6 2.1 2.2 1.8c1.3 1 2.7 1.5 3.2 1 1.3-1.3 3.6 0 3.6 2.2 0 2.7-1.9 6-3.1 5.3-1.3-.9-1.1.9.3 2.3 1.8 1.8 4.6 1.5 5.7-.7.6-1 .7-2.1.4-2.5-.9-.9 1-.7 2.4.2 1.7 1.1-.2 7.9-3 10.9-1.1 1.3-1.8 2.3-1.4 2.3 1 0-10.7 10.7-13 11.9-9 4.6-19-3.8-21.1-17.9l-.9-5.5-.8 4c-.4 2.2-.4 5.5.1 7.5.5 1.9.7 5.1.4 7-.9 5.3-.1 6.9 3.6 7.9 1.9.5 4.1 1.6 5 2.5 1.7 1.8 6.9 2.2 7.9.6.3-.6 5-1 10.4-1s11.3-.3 13-.6c3-.6 3.1-.9 3.1-5.5 0-3.2-.4-4.9-1.2-4.9-.9 0-.9-.3 0-1.2 1.9-1.9 1.4-4.9-.8-5.5-2.5-.7-2.5-1.4 0-4.6 1.1-1.4 2-3.9 2-5.5 0-3.5.6-3.7 12.3-4.7l7.8-.7-.3 3.3c-.3 3-.7 3.4-3.3 3.7-5.9.5-7.5 1.2-7.5 3.3 0 1.8.4 1.9 5 1.3l5-.7v3.7c0 3.3-.3 3.6-2.7 3.6-5.1 0-7.3 1.1-7.3 3.5 0 2.1.4 2.3 4.3 1.8 2.3-.2 5-.6 6-.8 1.3-.2 1.7.1 1.3 1.2-.3.8-.6 2.5-.6 3.8 0 2-.6 2.4-5 3l-5.1.7.3 7.1.3 7.2 12.5.6c6.9.3 12.7.7 13 .9.4.2-34.4 4.8-37.8 4.9-.8.1-.4 1.5 1.3 4.1 3.1 4.9 3.1 5.3-.1 10.8l-2.6 4.4 5.3-.6c20.4-2.6 20.9-2.7 20.9-5.1 0-1.4-.7-2.5-1.7-2.8-1-.2-.7-.3.6-.2 1.3.2 15-1.3 30.5-3.1 15.4-1.9 30.6-3.6 33.6-3.9 8.1-.7 41.2-4.5 43.5-5 1.8-.4 2-1.1 1.7-7.3l-.4-7-11.7-.7c-13.5-.8-17-1.9-7.2-2.2 6.4-.3 21.6-1.8 29.3-2.9l3.8-.6-3-4.3c-3-4.3-3-4.4-1.2-7.4 1.3-2.5 2.3-3 4.7-2.9 1.7.1 3.5.4 4 .7.6.3 3.6.4 6.8.2 3.6-.2 5.7.1 5.7.8 0 1.6 3.7 1.3 6.4-.4 1.3-.9 4.7-1.8 7.5-2.2 2.8-.3 5.4-1 5.7-1.5.3-.5-.6-.6-2-.2-1.6.4-2.6.2-2.6-.5 0-.6.3-1 .8-1 4.2.7 4.9-.1 5.8-6.4.7-5.5.9-18.2.3-21.4-.2-.9-.6-1-1.5-.2-1 .8-1.1 1.6-.3 3 .6 1.2.6 2.5 0 3.7-.5 1-1.3 4.7-1.7 8.2-.3 3.6-1.3 7.6-2 9-1.4 2.4-1.4 2.3-.8-1.5.6-3.8.5-3.9-.9-2-1.5 1.9-1.5 1.7-.7-2 1.5-6.6 1.1-7.3-1-1.6-2.2 5.9-4 8.4-8.5 11.3l-3 2 4-.6c2.5-.4 3.5-.3 2.5.3-.8.4-4.6 1.1-8.5 1.3-3.8.3-6 .3-4.7.1 2.1-.4 3.2-2.3 1.3-2.3-.5 0-3.1-1.6-5.7-3.6-4.2-3.2-5-3.5-7.3-2.5l-2.6 1.2 2.3-1.9c2.3-1.8 2.3-1.9.5-3.7-1.6-1.7-1.8-1.7-2.1-.2-.3 1.3-1 1.5-2.8 1.1-1.8-.5-2.5-.3-2.4.7.2.8.2 4.2.1 7.6-.1 4.9-.4 6.3-1.6 6.3-.8 0-4.9-3-9.1-6.6l-7.6-6.6.4 7.9.3 7.8-3.2-.3c-1.8-.2-4.5-.1-6 .3l-2.8.7 2.9 2.4c3.7 3.3 2.7 4.2-1.4 1.3-2.6-2-3.4-2.2-5.1-1.1-1.9 1.2-2 1.1-1.4-.7.5-1.8.3-2-2.2-1.6-5.1.8-17.6 2.4-28.8 3.5-6 .6-12.3 1.5-14 2l-3 .8 3.3.7c1.9.4 3.6 1.5 4 2.3.4 1.2.7 1.1 1.3-.6 1.2-3.1 4.7-2.8 5.9.3 1.3 3.3-.3 7.3-3.2 8.4-1.3.4-5 1.1-8.3 1.4-3.3.3-5.2.3-4.2 0 .9-.2 2.6-2.2 3.7-4.3 1.8-3.4 1.8-3.8.2-3.6-.9 0-1.6-.5-1.5-1.1.5-2.2-4.6-2.7-6.7-.8-2.4 2.2-3.9 1.3-1.9-1.1 1.3-1.6 1-1.6-3.1-1-2.5.3-7.6.9-11.5 1.1-3.8.3-8.3.8-9.8 1.1-2.5.5-2.7.3-2.3-1.8 1.4-6.2 1.6-11.1 1-19.9l-.6-9.7-4.5-3.1c-2.5-1.8-4.3-3.5-3.9-3.8.3-.3 1.2 0 2.1.7 1.3 1.1 1.5-.1 1.5-10.4 0-13.2-1-11.9 10.3-13.1l5.8-.5-.3 2.7c-.2 1.9-1 2.9-2.3 3.1-5 .7-6.5 1.3-6.5 2.6 0 1.1 1 1.3 4.1.9 4-.6 4.1-.5 3.7 2.3-.3 2.6-.7 2.9-4 3.2-3 .3-3.8.7-3.8 2.3 0 1.8.6 2 4.3 1.7 3.9-.2 4.2-.1 4.5 2.3.3 2.3-.1 2.7-3.5 3.2-2.1.4-5 .7-6.5.7-4.2 0-4.1 1.6.2 3 3.6 1.2 4.2 1.1 6.1-.6l2.1-1.9-.6 3.1c-.6 2.7-.2 3.5 2.9 6.2 3.9 3.5 4.4 4.5 1.8 3.5-1.6-.6-1.6-.4.1 1.5 1.1 1.2 2 2.2 2.1 2.2.2 0 2.9-3.1 6-7 8.3-10.2 9.1-9.8 8.7 5.2-.3 11.8.1 13.7 3.1 13.8.4 0 .7-6.1.7-13.5 0-16.2.4-16.5 9.2-7.8l5.7 5.7 2-2.5c1-1.3 3.5-4.4 5.4-6.8l3.5-4.4-2.7-2.4-2.6-2.4 3.4 1.6c1.8.9 4.2 1.4 5.3 1.2 1.4-.4 1.8-.1 1.4.8-.2.7.2 1.9 1 2.5 1.1 1 1.4.9 1.4-.3 0-2.2.5-2.4 10.3-3.2l8.7-.7v7.1l-5.2.3c-4.5.3-5.3.6-5.3 2.3 0 1.8.6 2 5 1.7l5-.3-.1 3.3c-.1 2.9-.4 3.3-3 3.6-6.3.6-7.5 1.2-7.2 3.5.3 1.9.9 2.2 6.3 2.2 5.6 0 6 .1 5.8 2.2-.2 1.3.2 2.3.7 2.3.6 0 1-5.6 1-14.5 0-14.1.1-14.5 2.1-14.5 1.2 0 5 2.5 8.4 5.5 3.5 3 6.6 5.5 6.9 5.5.3 0 .6-2.9.6-6.4 0-6.3 0-6.4 3.1-7 5.6-1.1 5.9-.9 5.9 4 0 4.5 2 8.1 3.9 7 1.1-.7.2-4.6-1.1-4.6-.5 0-.6-.6-.1-1.3.4-.6.7-2.1.6-3.2-.1-1.6-.1-1.6.3-.3.3 1 1 1.8 1.6 1.8.5 0 .8.6.5 1.4-.3.8.1 2 .9 2.7 1.2.9 2 .9 3.9-.1 1.4-.7 2.5-1.7 2.5-2.2 0-.4.6-.8 1.3-.8.7 0 1.8-1 2.6-2.3 1.4-2.2 1.4-2.2-.8-.3-1.9 1.7-2.6 1.5-2.2-.6 0-.4-1-.3-2.3.2-2.6.9-3.6-.2-3.6-4.1 0-2.3 2.6-2.5 3.8-.3 1.1 2 3.6.9 2.8-1.2-.3-.8-.1-1.4.3-1.4.5 0 1.2.6 1.4 1.2.4.9.6.8.6-.3.1-.8-.5-2.1-1.1-2.8-1.1-1-1-1.1.5-.6 1 .4 1.7.2 1.7-.4 0-.6.6-1.1 1.4-1.1.7 0 1.9-.7 2.6-1.5 1.6-1.9-.2-4.1-5.7-7-5.3-2.8-7.4-5-6-6.4 2.1-2.1 6.1-1.1 9.7 2.5 2.7 2.8 3.6 3.2 3.8 1.9.3-1.4.8-1.3 2.9.7 2.2 2 2.4 2 1.5.3-.5-1.1-2.1-3-3.4-4.1-7.7-7-16-5.6-20.8 3.4-1 2.1-1.9 3.1-2 2.4 0-2.4 2.7-7.7 5.3-10.1 1.5-1.3 2.4-2.7 2.2-3.1-.2-.4 1.9-.3 4.7.1 5.4.9 11.4 4.4 15.4 9.2 2.9 3.4 3.3 2.1.4-1.6-2.3-2.9-1.8-5.4 1.1-5.2 2.1.1 7.8 6.1 7.9 8.2 0 .7.5 1.3 1.1 1.3 1.1 0 .7-.8-2.5-5.5-1.5-2.1-2.1-4.8-2.3-9.5-.4-11.2-.1-10.3-2.8-8.2-1.2.9-2.2 1.9-2 2.2.2.3-2.1.3-5.1.2-4.3-.3-5.8-.9-7.2-2.7l-1.7-2.3-3.2 3c-2.6 2.5-4.3 3.2-8.6 3.6-4.6.4-5.7.1-8.5-2.3-3-2.5-3.2-3.1-3.2-9.1s.2-6.7 3.2-9.4c2.1-2 4.7-3.1 7.7-3.5 8.5-1.1 7.7-1.4-2.3-.9-5.5.2-12.4 0-15.6-.7-4.8-.9-6.2-.9-8.1.4-1.3.8-4.2 1.7-6.5 2.1-4 .6-4.1.5-3.6-1.9.2-1.4.8-2.2 1.3-1.9.5.3 1.8-.1 2.9-.9 1.8-1.3 1.7-1.4-2.3-3.4-3.7-1.8-4.5-1.9-6.2-.7zm28.1 21.7c.5 14.3-.1 15-7.9 8.3-3-2.5-5.7-4.6-6.1-4.6-.3 0-.6 2.2-.6 5 0 3.2-.4 5.1-1.2 5.2-.7 0-2.4.2-3.8.3-1.4.1-4.7.5-7.3.9-3.9.6-4.6 1-3.7 2.1 1 1.2.7 1.2-1.4.2-2.9-1.4-3.8-6.7-1.1-6.7 1.2 0 1.5-1.4 1.5-6.5 0-5.2-.3-6.5-1.6-6.5-1.1 0-1.4-.8-1.2-2.8.3-2.6.6-2.7 8-3.6 7-.8 7.8-.7 10.3 1.3 1.5 1.1 3.8 2.1 5.1 2.1 1.3 0 2.4.4 2.4 1 0 .5-.8.7-1.7.3-1.6-.6-1.6-.4.1 1.5 1.1 1.2 2.2 2.2 2.5 2.2.3 0 .4-2.4.3-5.4-.4-5.3-.3-5.5 2.5-5.9 1.5-.2 3.2-.3 3.7-.3.4.1 1 5.5 1.2 11.9zm24.9 11.2c0 2.7-.3 2.9-2.4 1.6-.9-.6-1-1.1-.2-1.5.6-.4 1.1-1.2 1.1-1.7 0-.6-.5-.7-1.2-.3-.7.4-.8.3-.4-.4 1.1-1.8 3.1-.4 3.1 2.3zm-19.4 1.8c-.6.8-.8 1.7-.4 2.1.4.4 0 .4-.9.1-2-.8-1.2-3.5.9-3.5 1.2 0 1.3.3.4 1.3zm-6.1 14.8v9.1l4.3-.4c3.9-.2 4.2-.1 4.5 2.3.3 2.4 0 2.7-4.5 3.2-13.4 1.7-18.3 1.9-18.3.8 0-.6-1.8-1.1-4.5-1.1-3.3 0-4.7.5-5.4 1.9-1.3 2.3-6 3.6-7.5 2.1-.8-.8-.8-1.3 0-1.8.7-.4 3.3-5.8 5.9-12 6.2-14.5 6.9-14.6 13.3-1.5l4.7 9.8.3-10c.3-10.4.8-11.5 5-11.5 2.1 0 2.2.3 2.2 9.1zm-43.5-4.7c.6-.1 2.1 1.1 3.5 2.9 1.9 2.4 2.1 2.9.7 2.4-.9-.3-1.7-.2-1.7.3 0 1.4 2.2 6 3 6 .3 0 1.4-2.5 2.5-5.6 2.1-6.2 4.8-8.8 7.6-7.4 1.6.9 1.3 2-3.3 12.7-2.8 6.5-5.6 12.1-6.2 12.5-1.6 1-2.8-.7-6.7-9.4-2.3-5.3-3.9-7.7-5.1-7.8-1.5 0-1.8 1-1.8 6.5 0 5.1.3 6.5 1.5 6.5 1.8 0 2.1 4.9.3 5.5-.7.2-3.4.5-6 .8-4.7.4-4.8.4-4.8-2.4 0-1.9.5-2.9 1.5-2.9 1.2 0 1.5-1.4 1.5-6.6 0-6.4-.1-6.6-2.2-6-1.3.3-3.1.6-4 .6-1.6 0-1.8 1.1-1.8 8.9 0 9.4-.4 10.1-5.2 10.1-1.8 0-1.9-.6-1.6-9 .3-10.1-.2-10.6-6.1-7.3-2.6 1.5-3.4 1.6-5.1.5-2.4-1.5-6-.7-6 1.2 0 .8 1.9 1.6 5.3 1.9 6.2.8 8.1 2.7 7.3 7.7-.5 3.1-.2 3.7 3 5.9 4.5 3.1 3.7 3.8-1.1 1-3.2-1.9-4.1-2.1-6.9-1.1-7.1 2.6-14.6.4-14.6-4.3 0-1.8 5.1-2.1 8.1-.4 1.5.7 2.4.7 3.5-.2 2.4-2 1.6-2.9-2.6-2.9-3 0-4.7-.7-6.5-2.5-1.4-1.3-2.5-2.9-2.5-3.4 0-2.7 2.3-6.3 5-8l3.1-1.8-2.7-1.7c-3.6-2.4-2.4-3 2-1 3.4 1.7 3.6 1.7 5.7-.2 2.2-1.9 2.2-1.9 1.1.2-1 1.9-.8 2.4 1.3 3.8 3 2 3.5 2 3.5.2 0-1.7 2-2.1 16.5-3.6 13.8-1.4 14.4-1.6 11.9-3.6-1.7-1.4-1.6-1.4 1.1-.1 1.7.8 3.5 1.3 4 1.1zm54.2 11.8c-.3.8-.6.5-.6-.6-.1-1.1.2-1.7.5-1.3.3.3.4 1.2.1 1.9zm1 11c-.3.8-.6.5-.6-.6-.1-1.1.2-1.7.5-1.3.3.3.4 1.2.1 1.9zm4.3 27.2c0 .2-.8 1-1.7 1.7-1.6 1.3-1.7 1.2-.4-.4 1.3-1.6 2.1-2.1 2.1-1.3zm-18 2.6c0 .5-.8 1-1.7 1-1.5 0-1.6-.2-.3-1 1.9-1.2 2-1.2 2 0zm1.3 4.7c-.7.2-2.1.2-3 0-1-.3-.4-.5 1.2-.5 1.7 0 2.4.2 1.8.5zm-165.2 8c1.3 1.6 1.2 1.7-.3.4-1.7-1.3-2.2-2.1-1.4-2.1.2 0 1 .8 1.7 1.7zm121.1.9c.9 1.9.9 3.3.1 5.4-.8 2.1-.8 3 .1 3.4.6.3-.2.3-1.9-.1-4.3-.8-4.5-1-4.5-5.2 0-6 4-8.3 6.2-3.5zM192 186c0 .5-.1 1-.2 1-.2 0-9.5 1.1-20.8 2.4-11.3 1.4-20.7 2.2-20.9 2-1.2-1.1 2.3-1.8 19.6-3.9 22.9-2.8 22.3-2.7 22.3-1.5zm-52.3 1.6c.3.8.1 2.6-.5 4-.7 1.5-.8 2.4-.2 2.4.6 0 1 .7 1 1.5s-.9 1.5-1.9 1.5c-1.1 0-2.7.3-3.7.7-1.6.6-1.6.3.4-3.1 2.6-4.4 2.8-5.8.7-5-.9.4-1.5 0-1.5-.9 0-2.7 4.7-3.6 5.7-1.1zm-22.2 7.3c-.6.5-9.9 1.9-20.8 3.1-17.4 1.9-22.2 2.1-20.6.6.6-.5 32.6-4.3 37.9-4.5 2.6-.1 4 .3 3.5.8zm46.3-.2c-1 .2-2.6.2-3.5 0-1-.3-.2-.5 1.7-.5s2.7.2 1.8.5zm-9 1c-1 .2-2.6.2-3.5 0-1-.3-.2-.5 1.7-.5s2.7.2 1.8.5zm37 2c-1 .2-2.6.2-3.5 0-1-.3-.2-.5 1.7-.5s2.7.2 1.8.5zm-7.6 6.3c-.3 4.3-.8 6-1.8 6-2.2 0-1.9-9.6.4-10.9.9-.6 1.7-1.1 1.7-1.1s-.2 2.7-.3 6zm-8.7-4c2 0 4.5 2.9 4.5 5.2 0 2.7-2.8 5.8-5.2 5.8-1.5 0-1.8-.8-1.8-5.4 0-3-.3-5.6-.7-5.9-.5-.2-.2-.2.5 0 .8.1 2 .3 2.7.3zm-63.7.7c-1 .2-2.6.2-3.5 0-1-.3-.2-.5 1.7-.5s2.7.2 1.8.5zm-9 1c-1 .2-2.6.2-3.5 0-1-.3-.2-.5 1.7-.5s2.7.2 1.8.5zm57 .2c1.9.1 1.7 11.1-.3 11.1-.9 0-1.5-1-1.6-2.3l-.1-2.2-.6 2.3c-1.2 4.1-2.7 2.4-2.7-3.1 0-3.6-.4-5.4-1.5-5.9-.8-.4.1-.5 2-.3s4.1.4 4.8.4zm8.2.6c0 .8-.7 1.5-1.5 1.5s-1.5.5-1.5 1.1c0 .6.7.9 1.5.5.9-.3 1.5 0 1.5.9 0 .8-.7 1.5-1.5 1.5s-1.5.4-1.5 1c0 .5.7.7 1.5.4.9-.4 1.5 0 1.5.9 0 1.4-4.4 3-5.5 1.9-1.1-1.1-.5-10 .8-10.5 2.5-1.1 4.7-.7 4.7.8zm4 4c0 4.2-.3 5.5-1.5 5.5s-1.5-1.3-1.5-5.5.3-5.5 1.5-5.5 1.5 1.3 1.5 5.5zm-77.2-3.8c-1 .2-2.6.2-3.5 0-1-.3-.2-.5 1.7-.5s2.7.2 1.8.5zm56-.1c2.1.6 2.3 1.2 2 5.8-.3 4.4-.6 5.1-2.5 5.4-2.3.3-3.1-1.2-1.3-2.3.6-.3 1-2.4 1-4.5 0-2.8-.5-4-1.7-4.3-1-.3-1.3-.5-.8-.6.6 0 2 .2 3.3.5zm-65 1.1c-1 .2-2.6.2-3.5 0-1-.3-.2-.5 1.7-.5s2.7.2 1.8.5zm54 .4c3.5 1.2 4.6 3.2 3.2 5.9-.7 1.3-.7 2.1 0 2.5 1.5.9 1.2 2.5-.5 2.5-.8 0-1.5-.5-1.5-1 0-.6-.5-1-1.1-1-.5 0-.8.4-.5.9.3.5-.1 1.2-1 1.5-1.4.5-1.5-.3-1.2-5.4.2-3.4-.1-6.2-.7-6.4-2.1-.9.4-.5 3.3.5zm50.2.4c0 .8-.9 1.5-2 1.5-2.2 0-2.7-1.5-.7-2.3 2.1-.9 2.7-.7 2.7.8zm-55.2.4c2.4.2.2 11.1-2.3 11.1-1.3 0-3.5-5.6-3.5-9.2 0-.9-.8-1.9-1.7-2.1-1-.2 0-.3 2.2-.1 2.2.1 4.6.3 5.3.3zm12.9 4.2c-.7 5.7-1.4 7-2.7 5-.6-1.1-.7-6.8-.1-9.9.1-.1.8-.2 1.7-.2 1.4 0 1.6.8 1.1 5.1zm-24.6-3.1c1 0 1.9.7 1.9 1.5s-.7 1.5-1.5 1.5-1.5.4-1.5 1c0 .5.7.7 1.5.4.9-.4 1.5 0 1.5 1 0 .9-.7 1.6-1.5 1.6s-1.5.4-1.5 1c0 .5.7.7 1.5.4.9-.4 1.5 0 1.5 1 0 1.1-.9 1.6-3.1 1.6h-3.1l.4-5.5c.1-3 .1-5.7-.2-5.8-.3-.2.1-.2.8 0 .8.1 2.2.3 3.3.3zm-7.3.6c2.1.6 2.3 1.2 2 5.8-.3 4.4-.6 5.1-2.5 5.4-2.4.4-3.2-1.5-1-2.4.8-.3 1.1-1.8.9-4.4-.4-3.5-.7-3.9-3.5-4.3-2.5-.3-2.7-.4-.7-.5 1.4-.1 3.5.1 4.8.4zm-8.1 2.6c1.6 1.3 1.3 9.8-.4 9.8-.7 0-1.3-.6-1.3-1.3 0-.9-.3-.8-.9.2-.5.7-1.4 1-2 .7-.6-.4-1.1-.2-1.1.3 0 .6-1.3 1.1-3 1.1-3 0-3-.1-3-5.5s0-5.5 3-5.5c3.5 0 4 1.7.8 3-1.7.6-1.8.9-.6.9 2.7.1 3.1 2 .6 3l-2.3 1h2.3c1.2.1 2.2-.2 2.3-.7 0-.4.2-2.3.4-4.2.2-1.9-.2-3.9-.8-4.3-.7-.4.2-.5 1.8-.1 1.7.4 3.5 1.1 4.2 1.6zm-20.6 4.1c.1 2.1.1 2.1.8-.2.8-3 3.1-4 3.1-1.4 0 3.7-2.1 9.3-3.5 9.3-1.6 0-3.9-7.4-3.1-9.7.8-2 2.6-.7 2.7 2zm7.7 1.9c-.4 7.4-2.8 7.7-2.8.4 0-4.4.3-5.6 1.6-5.6 1.2 0 1.4 1 1.2 5.2zM82 217c0 .5-.9 1-2 1s-2-.5-2-1c0-.6.9-1 2-1s2 .4 2 1zm-3.7 6.7c-.7.2-2.1.2-3 0-1-.3-.4-.5 1.2-.5 1.7 0 2.4.2 1.8.5zm1.4 3.9c-.3.3-1.2.4-1.9.1-.8-.3-.5-.6.6-.6 1.1-.1 1.7.2 1.3.5z"/><path d="M169.3 94.7c-2 .7-1.8 13.3.2 13.3 1.2 0 1.5-1.4 1.5-7 0-3.9-.1-7-.2-6.9-.2 0-.9.3-1.5.6zM172.2 131.7c-1.5 2.8-1.5 3.3.2 3.3 2 0 2.5-1.1 1.6-3.5-.7-1.9-.7-1.9-1.8.2zM143.6 189.8c-.4 1.3-.5 2.6-.2 2.9 1 1.1 1.8-.4 1.4-2.9l-.4-2.3-.8 2.3zM175.5 205.6c0 1.3.3 2.4.8 2.4.4 0 .7-.9.7-1.9 0-1.1-.3-2.2-.7-2.4-.5-.3-.8.6-.8 1.9zM157.2 204.5c0 1.6.2 2.2.5 1.2.2-.9.2-2.3 0-3-.3-.6-.5.1-.5 1.8zM139.6 208.5c-.3.8-.1 1.5.4 1.5.6 0 1-.7 1-1.5s-.2-1.5-.4-1.5-.6.7-1 1.5zM132.2 207.5c0 1.6.2 2.2.5 1.2.2-.9.2-2.3 0-3-.3-.6-.5.1-.5 1.8zM105 212.6c0 .8.5 1.2 1 .9.6-.4.8-1.1.5-1.6-.9-1.4-1.5-1.1-1.5.7zM98.3 83.3l-5.2 3.2 5.8 3.8c6.8 4.4 8.3 4.6 10.6 1.1.9-1.4 1.9-2.3 2.2-2 .3.3.1 1.1-.4 1.8s-1.3 2.1-1.7 3.2c-.6 1.7-.2 1.8 3.4 1.3 3.9-.5 4-.4 4 2.3 0 1.6-.5 3-1.1 3.2-.6.2-1.3 3.2-1.6 6.6-.4 5.2-.3 6.2 1.1 6.2 1.1 0 1.6-.9 1.6-2.9 0-4.7 5.7-5.9 6.2-1.4.2 2 .9 2.8 2.3 2.8 1.7 0 2.1-.8 2.5-6.3.5-5.8.4-6.3-1.5-6-2.9.3-6.5-2-6.5-4.1 0-1-.9-2.9-2-4.2-1.2-1.2-3-3.8-4.1-5.6-1.1-1.8-2.3-3.3-2.5-3.3-.3 0-1.6 1.2-2.9 2.7-2.3 2.8-2.4 2.8-3.9.8-.9-1.1-1.4-3-1.1-4.3.3-1.2.4-2.2.3-2.2-.2 0-2.6 1.5-5.5 3.3zm22.7 18c0 .2-1 1.2-2.1 2.3-2.2 1.9-2.2 1.9-1-.4 1-1.8 3.1-3.1 3.1-1.9zM217.2 87.3c-.6.7-.7 1.9-.3 2.6.6.9 1 .5 1.3-1.3.6-3 .5-3.1-1-1.3zM145 89.5c.8 1 .7 1.4-.7 1.8-1.2.3-.9.5.8.6 1.6.1 2.9-.5 3.3-1.4.3-.8.2-1.5-.2-1.6-.4 0-1.5-.2-2.5-.4-1.4-.3-1.6 0-.7 1zM227.5 89c.3.5 1.1 1 1.6 1 .6 0 .7-.5.4-1-.3-.6-1.1-1-1.6-1-.6 0-.7.4-.4 1zM242.5 89c-.3.5-.1 1.8.4 2.7.9 1.6 1 1.4 1.1-1 0-2.8-.5-3.4-1.5-1.7z"/><path d="M88.5 90c.3.5 0 .7-.9.4-.8-.3-4.5.6-8.3 1.9-4.5 1.6-7.5 2.2-8.9 1.7-1.2-.5-3.9-.5-6 0-2.2.4-6 1.1-8.7 1.5-2.6.3-4.5 1-4.2 1.5.2.4-.5 1.1-1.8 1.4-2.1.7-2.1.8-.2 1.5 1.9.8 1.9.8 0 1.9-1.8 1.1-1.8 1.2.5.8 1.4-.3 6.4-.8 11.1-1.1l8.6-.5 2.4 5.6 2.4 5.7 2.5-6.4 2.5-6.4 10-1.1c8.3-1 10.5-.9 12.7.2 2.1 1.1 2.6 1.1 2.3.2-.9-2.2-7.1-5.9-10.9-6.5-2.1-.3-3.6-1.1-3.6-1.9 0-.8-.5-1.4-1.1-1.4-.5 0-.7.4-.4 1zM230.5 91c-.3.5.1 1 .9 1s1.8-.5 2.1-1c.3-.6-.1-1-.9-1s-1.8.4-2.1 1zM128.3 92.2c-.2.5 1.2.8 3.1.8 2 0 3.6-.4 3.6-.9 0-1-6-.9-6.7.1zM202.8 92.7c-2.1 2.6-2.7 4.8-1.7 6.4.6 1 .9.8.9-1.1 0-2.5 2-6.7 2-4.3 0 .7.7 1.3 1.5 1.3.9 0 1.2-.6.8-1.6-.5-1.3-.2-1.5 1.5-.9 1.3.4 2.2.2 2.2-.4 0-1.8-5.6-1.2-7.2.6zM216 93c0 .5.5 1 1 1 .6 0 1-.5 1-1 0-.6-.4-1-1-1-.5 0-1 .4-1 1zM124.1 96.6c0 1.1.3 1.4.6.6.3-.7.2-1.6-.1-1.9-.3-.4-.6.2-.5 1.3zM218 96.1c0 .5.5.9 1.1.9.8 0 .8.4 0 1.4-.9 1.1-.6 1.2 1.4.8 1.4-.2 3.3.2 4.2.9 1.2 1.1 1.7 1.1 2 .2.2-.7 1-1 1.8-.7.7.3 1.6.1 2-.5.4-.7-.5-1.1-2.5-1.1-1.7 0-4.6-.7-6.5-1.4-1.9-.8-3.5-1.1-3.5-.5z"/><path d="M204 98.2c0 3.3 1.4 5 3.3 4.2.9-.3 1.7-1 1.7-1.5 0-.4-.7-.6-1.5-.3-1 .4-1.5 0-1.5-1.4 0-1.2-.4-2.4-1-2.7-.6-.3-1 .4-1 1.7zM144 104c0 5.7.1 6 2.4 6 2.9 0 5.6-3.4 5.6-7 0-3.4-1.7-5-5.2-5-2.8 0-2.8.1-2.8 6zM105 105.3c0 1.8-.6 4.2-1.4 5.2-1.7 2.4-.1 5.4 2.6 4.7 1.5-.4 1.8-1.5 1.8-6.8 0-5-.3-6.4-1.5-6.4-1 0-1.5 1-1.5 3.3zM93.7 103.6c-.4.4-.7 1.8-.7 3.1 0 2.1.4 2.4 2.8 2.1 2.1-.2 2.7-.8 2.7-2.8 0-1.8-.6-2.6-2-2.8-1.2-.2-2.4 0-2.8.4zM44.5 110.5c0 3.9.2 4.3 1.3 2.8.6-.9 1.2-2.2 1.2-2.8 0-.6-.6-1.9-1.2-2.8-1.1-1.5-1.3-1.1-1.3 2.8zM33.6 110.8c-.2.4-.1 1.4.5 2.2.7 1.2.9 1 .9-.8 0-2.3-.5-2.8-1.4-1.4zM54 118.5c0 .8.5 1.5 1 1.5.6 0 1-.7 1-1.5s-.4-1.5-1-1.5c-.5 0-1 .7-1 1.5zM34.5 119.8c-2.2 1.6-1.5 3.3 1.2 3 3.2-.3 4.7-3.8 1.6-3.8-1 0-2.2.4-2.8.8zM63 123.2c0 1.5-.6 2.8-1.5 3-1 .2-.8.6.8 1.4 2 .9 2.3.7 2.5-1.4.1-1.3-.2-3.1-.8-4-.8-1.4-.9-1.2-1 1zM24.9 124.3c-1 4.3 0 6.7 2.5 6.6 1.6-.1 1.7-.2.4-.6-1.2-.3-1.8-1.7-2-4.6-.3-3.8-.4-3.9-.9-1.4zM41.1 140.4c-.7 1.3-1.1 2.9-.7 3.4.7 1.2 4.6.4 4.6-.9 0-.5.6-.6 1.4-.3 1.1.4 1.3 0 .9-1.5-.3-1.2-.9-2.1-1.3-2.1-.5 0-1.5-.2-2.2-.5-.8-.3-2 .4-2.7 1.9zM231.4 154.7c-2.5 2.6-2.7 2.6-2.1.6.6-2.6.8-2.7-10.1 4l-7.3 4.5 3.3 2.5c4.3 3.2 7.2 4 11.4 3.3 4.4-.9 8.5-6.2 9.1-12 .7-5.5-.9-6.6-4.3-2.9zM148.7 155.7c-.9.8-.7 18.1.1 20.8.4 1.1 1.3 2.1 2 2.2 1.8.4 1.7-21-.1-22.6-.8-.6-1.7-.8-2-.4zM212.6 158.6c-1.9 1.1-2.5 1.9-1.8 2.6.7.7 2.2.4 4.6-1.2 2-1.2 3.6-2.4 3.6-2.6 0-.9-3.7-.2-6.4 1.2zM24.6 163.6c-1.2 3.2-.5 10.9 1.4 14.9 3.6 7.4 12.3 9.8 19.1 5.2 5.3-3.6 10-10.3 9-13-.8-2.3-8.8-7.4-9.9-6.3-.3.4.4.9 1.6 1.3 1.2.3 2.2.9 2.2 1.4 0 1.6-3.1.9-7.8-1.8-6.7-3.8-5-2.3 4.7 4.1 10.1 6.8 9.5 7.4-.9 1-9.4-5.8-13.1-7.7-12.9-6.7.7 4.5-2.7 5.5-3.6 1.1-.7-3.1-2-3.6-2.9-1.2zM14.8 167.6c-1 .9.4 4.5 1.6 4.1 1.7-.5 2-4.7.3-4.7-.7 0-1.6.3-1.9.6zM136.8 174c-2.7 3.7-3.4 3.7-7 .3l-2.8-2.7v8.5l5.3-.7c2.8-.4 5.8-.7 6.5-.7.7 0 1.2-1.5 1.2-3.9 0-2.1-.2-3.8-.5-3.8-.2 0-1.4 1.3-2.7 3zM103.3 178.2l-3.3 3.2-3-2.9-3-2.9v5.8c0 4.8.2 5.6 1.4 4.7.7-.6 3.4-1.4 6-1.7 5.2-.8 5.9-1.6 5.4-6.3l-.3-3.2-3.2 3.3zM129 192.5c.1 2.6.2 2.8 1.1 1.2.8-1.4.8-2.2 0-3-.8-.8-1.1-.3-1.1 1.8zM65.4 193.5c1.8 1.4 1.8 1.5.2 1.5-.9 0-1.4.4-1.1 1 1.4 2.2 5.6.4 6.3-2.8.1-.8-1.1-1.2-3.5-1.2-3.6.1-3.7.2-1.9 1.5zM124.7 193.3c-.4 1.1-.1 2.4.7 3.3 1.8 1.7 3.2 1.9 1.8.1-.5-.6-1.2-2.1-1.4-3.2-.3-1.9-.4-1.9-1.1-.2z"/></svg>